<?xml version="1.0" encoding="utf-8"?>
<!-- Generator: Adobe Illustrator 19.0.0, SVG Export Plug-In . SVG Version: 6.00 Build 0)  -->
<svg version="1.1" id="Layer_1" xmlns="http://www.w3.org/2000/svg" xmlns:xlink="http://www.w3.org/1999/xlink" x="0px" y="0px"
	 viewBox="-64 60.9 200 200" style="enable-background:new -64 60.9 200 200;" xml:space="preserve">
<style type="text/css">
	.st0{opacity:0.9;fill:#221F1F;}
	.st1{fill:#FFFFFF;}
</style>
<rect id="XMLID_6_" x="-64" y="60.9" class="st0" width="200" height="200"/>
<g id="XMLID_2_">
	<g id="LWPOLYLINE_15_">
		<path id="XMLID_5_" class="st1" d="M-19.4,165.3c0-6.5-5.3-11.8-11.8-11.8c-6.5,0-11.8,5.3-11.8,11.8v11.8h-7.9v-31.5h7.9v3.9
			c8.7-6.5,21-4.8,27.6,3.9c3.1-4.6,10.2-8.2,15.7-7.9c10.9,0,19.7,8.8,19.7,19.7v11.8H12v-11.8c0-6.5-5.3-11.8-11.8-11.8
			s-11.8,5.3-11.8,11.8v11.8h-7.9V165.3"/>
	</g>
	<g id="LWPOLYLINE_14_">
		<path id="XMLID_4_" class="st1" d="M82.9,165.3c0-6.5-5.3-11.8-11.8-11.8c-6.5,0-11.8,5.3-11.8,11.8v11.8h-7.9v-31.5h7.9v3.9
			c8.7-6.5,21-4.8,27.6,3.9c3.1-4.6,10.2-8.2,15.7-7.9c10.9,0,19.7,8.8,19.7,19.7v11.8h-7.9v-11.8c0-6.5-5.3-11.8-11.8-11.8
			c-6.5,0-11.8,5.3-11.8,11.8v11.8h-7.9V165.3"/>
	</g>
	<g id="LWPOLYLINE_13_">
		<rect id="XMLID_3_" x="33.7" y="114.1" class="st1" width="3.9" height="94.5"/>
	</g>
</g>
</svg>
